<svg width="192" height="192" viewBox="0 0 192 192" fill="none" xmlns="http://www.w3.org/2000/svg">
<rect x="2" y="2" width="188" height="188" rx="2" fill="#0A9418" fill-opacity="0.75" stroke="#06600F" stroke-width="4"/>
<path d="M90.375 81.0225C90.375 84.1279 89.5986 86.8818 88.0459 89.2842C86.4932 91.6865 84.3545 93.6055 81.6299 95.041C84.7354 96.5352 87.1963 98.6006 89.0127 101.237C90.8291 103.845 91.7373 106.921 91.7373 110.466C91.7373 116.149 89.8037 120.646 85.9365 123.957C82.0693 127.238 76.8105 128.879 70.1602 128.879C63.5098 128.879 58.2363 127.224 54.3398 123.913C50.4434 120.603 48.4951 116.12 48.4951 110.466C48.4951 106.921 49.4033 103.83 51.2197 101.193C53.0361 98.5566 55.4824 96.5059 58.5586 95.041C55.834 93.6055 53.6953 91.6865 52.1426 89.2842C50.6191 86.8818 49.8574 84.1279 49.8574 81.0225C49.8574 75.5732 51.6738 71.2373 55.3066 68.0146C58.9395 64.7627 63.876 63.1367 70.1162 63.1367C76.3271 63.1367 81.249 64.748 84.8818 67.9707C88.5439 71.1641 90.375 75.5146 90.375 81.0225ZM78.9932 109.543C78.9932 106.76 78.1875 104.533 76.5762 102.863C74.9648 101.193 72.7969 100.358 70.0723 100.358C67.377 100.358 65.2236 101.193 63.6123 102.863C62.001 104.504 61.1953 106.73 61.1953 109.543C61.1953 112.268 61.9863 114.465 63.5684 116.135C65.1504 117.805 67.3477 118.64 70.1602 118.64C72.9141 118.64 75.0674 117.834 76.6201 116.223C78.2021 114.611 78.9932 112.385 78.9932 109.543ZM77.6748 81.6377C77.6748 79.1475 77.0156 77.1553 75.6973 75.6611C74.3789 74.1377 72.5186 73.376 70.1162 73.376C67.7432 73.376 65.8975 74.1084 64.5791 75.5732C63.2607 77.0381 62.6016 79.0596 62.6016 81.6377C62.6016 84.1865 63.2607 86.2373 64.5791 87.79C65.8975 89.3428 67.7578 90.1191 70.1602 90.1191C72.5625 90.1191 74.4082 89.3428 75.6973 87.79C77.0156 86.2373 77.6748 84.1865 77.6748 81.6377ZM142.055 81.0225C142.055 84.1279 141.278 86.8818 139.726 89.2842C138.173 91.6865 136.034 93.6055 133.31 95.041C136.415 96.5352 138.876 98.6006 140.692 101.237C142.509 103.845 143.417 106.921 143.417 110.466C143.417 116.149 141.483 120.646 137.616 123.957C133.749 127.238 128.49 128.879 121.84 128.879C115.189 128.879 109.916 127.224 106.02 123.913C102.123 120.603 100.175 116.12 100.175 110.466C100.175 106.921 101.083 103.83 102.899 101.193C104.716 98.5566 107.162 96.5059 110.238 95.041C107.514 93.6055 105.375 91.6865 103.822 89.2842C102.299 86.8818 101.537 84.1279 101.537 81.0225C101.537 75.5732 103.354 71.2373 106.986 68.0146C110.619 64.7627 115.556 63.1367 121.796 63.1367C128.007 63.1367 132.929 64.748 136.562 67.9707C140.224 71.1641 142.055 75.5146 142.055 81.0225ZM130.673 109.543C130.673 106.76 129.867 104.533 128.256 102.863C126.645 101.193 124.477 100.358 121.752 100.358C119.057 100.358 116.903 101.193 115.292 102.863C113.681 104.504 112.875 106.73 112.875 109.543C112.875 112.268 113.666 114.465 115.248 116.135C116.83 117.805 119.027 118.64 121.84 118.64C124.594 118.64 126.747 117.834 128.3 116.223C129.882 114.611 130.673 112.385 130.673 109.543ZM129.354 81.6377C129.354 79.1475 128.695 77.1553 127.377 75.6611C126.059 74.1377 124.198 73.376 121.796 73.376C119.423 73.376 117.577 74.1084 116.259 75.5732C114.94 77.0381 114.281 79.0596 114.281 81.6377C114.281 84.1865 114.94 86.2373 116.259 87.79C117.577 89.3428 119.438 90.1191 121.84 90.1191C124.242 90.1191 126.088 89.3428 127.377 87.79C128.695 86.2373 129.354 84.1865 129.354 81.6377Z" fill="white"/>
</svg>
